<mxfile host="app.diagrams.net" modified="2023-11-06T04:50:50.538Z" agent="Mozilla/5.0 (Windows NT 10.0; Win64; x64) AppleWebKit/537.36 (KHTML, like Gecko) Chrome/119.0.0.0 Safari/537.36" etag="j_sw4avyyOfD3CSMQgw5" version="22.0.8" type="github">
  <diagram id="C5RBs43oDa-KdzZeNtuy" name="Page-1">
    <mxGraphModel dx="739" dy="748" grid="1" gridSize="10" guides="1" tooltips="1" connect="1" arrows="1" fold="1" page="1" pageScale="1" pageWidth="827" pageHeight="1169" math="0" shadow="0">
      <root>
        <mxCell id="WIyWlLk6GJQsqaUBKTNV-0" />
        <mxCell id="WIyWlLk6GJQsqaUBKTNV-1" parent="WIyWlLk6GJQsqaUBKTNV-0" />
        <mxCell id="4Tn1_aSyDvWxXrgQCYve-0" value="메인 화면" style="rounded=0;whiteSpace=wrap;html=1;" vertex="1" parent="WIyWlLk6GJQsqaUBKTNV-1">
          <mxGeometry x="296" y="40" width="159" height="40" as="geometry" />
        </mxCell>
        <mxCell id="4Tn1_aSyDvWxXrgQCYve-2" value="" style="endArrow=none;html=1;rounded=0;entryX=0.5;entryY=1;entryDx=0;entryDy=0;" edge="1" parent="WIyWlLk6GJQsqaUBKTNV-1">
          <mxGeometry width="50" height="50" relative="1" as="geometry">
            <mxPoint x="375" y="160" as="sourcePoint" />
            <mxPoint x="375" y="80" as="targetPoint" />
          </mxGeometry>
        </mxCell>
        <mxCell id="4Tn1_aSyDvWxXrgQCYve-4" value="" style="endArrow=none;html=1;rounded=0;" edge="1" parent="WIyWlLk6GJQsqaUBKTNV-1">
          <mxGeometry width="50" height="50" relative="1" as="geometry">
            <mxPoint x="375" y="120" as="sourcePoint" />
            <mxPoint x="412" y="120" as="targetPoint" />
          </mxGeometry>
        </mxCell>
        <mxCell id="4Tn1_aSyDvWxXrgQCYve-5" value="로그인 및 회원가입" style="rounded=0;whiteSpace=wrap;html=1;" vertex="1" parent="WIyWlLk6GJQsqaUBKTNV-1">
          <mxGeometry x="412" y="105" width="120" height="30" as="geometry" />
        </mxCell>
        <mxCell id="4Tn1_aSyDvWxXrgQCYve-6" value="" style="endArrow=none;html=1;rounded=0;" edge="1" parent="WIyWlLk6GJQsqaUBKTNV-1">
          <mxGeometry width="50" height="50" relative="1" as="geometry">
            <mxPoint x="180" y="160" as="sourcePoint" />
            <mxPoint x="570" y="160" as="targetPoint" />
          </mxGeometry>
        </mxCell>
        <mxCell id="4Tn1_aSyDvWxXrgQCYve-7" value="" style="endArrow=none;html=1;rounded=0;" edge="1" parent="WIyWlLk6GJQsqaUBKTNV-1">
          <mxGeometry width="50" height="50" relative="1" as="geometry">
            <mxPoint x="180.5" y="220" as="sourcePoint" />
            <mxPoint x="180.5" y="161" as="targetPoint" />
          </mxGeometry>
        </mxCell>
        <mxCell id="4Tn1_aSyDvWxXrgQCYve-8" value="마이페이지" style="rounded=0;whiteSpace=wrap;html=1;" vertex="1" parent="WIyWlLk6GJQsqaUBKTNV-1">
          <mxGeometry x="120" y="220" width="120" height="30" as="geometry" />
        </mxCell>
        <mxCell id="4Tn1_aSyDvWxXrgQCYve-9" value="" style="endArrow=none;html=1;rounded=0;" edge="1" parent="WIyWlLk6GJQsqaUBKTNV-1">
          <mxGeometry width="50" height="50" relative="1" as="geometry">
            <mxPoint x="569.5" y="220" as="sourcePoint" />
            <mxPoint x="569.5" y="161" as="targetPoint" />
          </mxGeometry>
        </mxCell>
        <mxCell id="4Tn1_aSyDvWxXrgQCYve-10" value="어플라이 &lt;br&gt;프로젝트 관리" style="rounded=0;whiteSpace=wrap;html=1;" vertex="1" parent="WIyWlLk6GJQsqaUBKTNV-1">
          <mxGeometry x="510" y="220" width="120" height="30" as="geometry" />
        </mxCell>
        <mxCell id="4Tn1_aSyDvWxXrgQCYve-11" value="" style="endArrow=none;html=1;rounded=0;" edge="1" parent="WIyWlLk6GJQsqaUBKTNV-1">
          <mxGeometry width="50" height="50" relative="1" as="geometry">
            <mxPoint x="141" y="350" as="sourcePoint" />
            <mxPoint x="141" y="250" as="targetPoint" />
          </mxGeometry>
        </mxCell>
        <mxCell id="4Tn1_aSyDvWxXrgQCYve-12" value="" style="endArrow=none;html=1;rounded=0;" edge="1" parent="WIyWlLk6GJQsqaUBKTNV-1">
          <mxGeometry width="50" height="50" relative="1" as="geometry">
            <mxPoint x="141" y="299" as="sourcePoint" />
            <mxPoint x="191" y="299" as="targetPoint" />
          </mxGeometry>
        </mxCell>
        <mxCell id="4Tn1_aSyDvWxXrgQCYve-15" value="" style="endArrow=none;html=1;rounded=0;" edge="1" parent="WIyWlLk6GJQsqaUBKTNV-1">
          <mxGeometry width="50" height="50" relative="1" as="geometry">
            <mxPoint x="141" y="350" as="sourcePoint" />
            <mxPoint x="191" y="350" as="targetPoint" />
          </mxGeometry>
        </mxCell>
        <mxCell id="4Tn1_aSyDvWxXrgQCYve-18" value="내 프로젝트" style="rounded=0;whiteSpace=wrap;html=1;" vertex="1" parent="WIyWlLk6GJQsqaUBKTNV-1">
          <mxGeometry x="191" y="287" width="80" height="24" as="geometry" />
        </mxCell>
        <mxCell id="4Tn1_aSyDvWxXrgQCYve-19" value="내 부서 프로젝트" style="rounded=0;whiteSpace=wrap;html=1;" vertex="1" parent="WIyWlLk6GJQsqaUBKTNV-1">
          <mxGeometry x="191" y="338" width="80" height="24" as="geometry" />
        </mxCell>
        <mxCell id="4Tn1_aSyDvWxXrgQCYve-26" value="" style="endArrow=none;html=1;rounded=0;" edge="1" parent="WIyWlLk6GJQsqaUBKTNV-1">
          <mxGeometry width="50" height="50" relative="1" as="geometry">
            <mxPoint x="530" y="350" as="sourcePoint" />
            <mxPoint x="530" y="250" as="targetPoint" />
          </mxGeometry>
        </mxCell>
        <mxCell id="4Tn1_aSyDvWxXrgQCYve-27" value="" style="endArrow=none;html=1;rounded=0;" edge="1" parent="WIyWlLk6GJQsqaUBKTNV-1">
          <mxGeometry width="50" height="50" relative="1" as="geometry">
            <mxPoint x="530" y="299" as="sourcePoint" />
            <mxPoint x="580" y="299" as="targetPoint" />
          </mxGeometry>
        </mxCell>
        <mxCell id="4Tn1_aSyDvWxXrgQCYve-28" value="" style="endArrow=none;html=1;rounded=0;" edge="1" parent="WIyWlLk6GJQsqaUBKTNV-1">
          <mxGeometry width="50" height="50" relative="1" as="geometry">
            <mxPoint x="530" y="350" as="sourcePoint" />
            <mxPoint x="580" y="350" as="targetPoint" />
          </mxGeometry>
        </mxCell>
        <mxCell id="4Tn1_aSyDvWxXrgQCYve-31" value="대학별" style="rounded=0;whiteSpace=wrap;html=1;" vertex="1" parent="WIyWlLk6GJQsqaUBKTNV-1">
          <mxGeometry x="580" y="287" width="80" height="24" as="geometry" />
        </mxCell>
        <mxCell id="4Tn1_aSyDvWxXrgQCYve-32" value="부서별" style="rounded=0;whiteSpace=wrap;html=1;" vertex="1" parent="WIyWlLk6GJQsqaUBKTNV-1">
          <mxGeometry x="580" y="338" width="80" height="24" as="geometry" />
        </mxCell>
        <mxCell id="4Tn1_aSyDvWxXrgQCYve-33" value="&lt;span style=&quot;background-color: initial;&quot;&gt;프로젝트 id&lt;/span&gt;&lt;br&gt;&lt;span style=&quot;background-color: initial;&quot;&gt;기간&lt;/span&gt;&lt;br&gt;&lt;span style=&quot;background-color: initial;&quot;&gt;참여 인원&lt;/span&gt;&lt;br&gt;&lt;span style=&quot;background-color: initial;&quot;&gt;대학&lt;/span&gt;&lt;br&gt;&lt;span style=&quot;background-color: initial;&quot;&gt;부서&lt;/span&gt;&lt;br&gt;&lt;span style=&quot;background-color: initial;&quot;&gt;프로젝트 내용&lt;/span&gt;&lt;br&gt;&lt;span style=&quot;background-color: initial;&quot;&gt;진행률&lt;/span&gt;" style="whiteSpace=wrap;html=1;aspect=fixed;align=left;" vertex="1" parent="WIyWlLk6GJQsqaUBKTNV-1">
          <mxGeometry x="690" y="177.5" width="115" height="115" as="geometry" />
        </mxCell>
        <mxCell id="4Tn1_aSyDvWxXrgQCYve-35" value="" style="endArrow=classic;html=1;rounded=0;exitX=1;exitY=0.5;exitDx=0;exitDy=0;entryX=0;entryY=0.5;entryDx=0;entryDy=0;" edge="1" parent="WIyWlLk6GJQsqaUBKTNV-1" source="4Tn1_aSyDvWxXrgQCYve-10" target="4Tn1_aSyDvWxXrgQCYve-33">
          <mxGeometry width="50" height="50" relative="1" as="geometry">
            <mxPoint x="630" y="236.99" as="sourcePoint" />
            <mxPoint x="680" y="237" as="targetPoint" />
          </mxGeometry>
        </mxCell>
        <mxCell id="4Tn1_aSyDvWxXrgQCYve-38" value="" style="endArrow=none;html=1;rounded=0;" edge="1" parent="WIyWlLk6GJQsqaUBKTNV-1">
          <mxGeometry width="50" height="50" relative="1" as="geometry">
            <mxPoint x="375" y="219" as="sourcePoint" />
            <mxPoint x="375" y="160" as="targetPoint" />
          </mxGeometry>
        </mxCell>
        <mxCell id="4Tn1_aSyDvWxXrgQCYve-39" value="전체 프로젝트" style="rounded=0;whiteSpace=wrap;html=1;" vertex="1" parent="WIyWlLk6GJQsqaUBKTNV-1">
          <mxGeometry x="314.5" y="219" width="120" height="30" as="geometry" />
        </mxCell>
        <mxCell id="4Tn1_aSyDvWxXrgQCYve-40" value="" style="endArrow=none;html=1;rounded=0;" edge="1" parent="WIyWlLk6GJQsqaUBKTNV-1">
          <mxGeometry width="50" height="50" relative="1" as="geometry">
            <mxPoint x="329" y="350" as="sourcePoint" />
            <mxPoint x="329" y="249" as="targetPoint" />
          </mxGeometry>
        </mxCell>
        <mxCell id="4Tn1_aSyDvWxXrgQCYve-41" value="" style="endArrow=none;html=1;rounded=0;" edge="1" parent="WIyWlLk6GJQsqaUBKTNV-1">
          <mxGeometry width="50" height="50" relative="1" as="geometry">
            <mxPoint x="329" y="298" as="sourcePoint" />
            <mxPoint x="379" y="298" as="targetPoint" />
          </mxGeometry>
        </mxCell>
        <mxCell id="4Tn1_aSyDvWxXrgQCYve-42" value="" style="endArrow=none;html=1;rounded=0;" edge="1" parent="WIyWlLk6GJQsqaUBKTNV-1">
          <mxGeometry width="50" height="50" relative="1" as="geometry">
            <mxPoint x="329" y="349" as="sourcePoint" />
            <mxPoint x="379" y="349" as="targetPoint" />
          </mxGeometry>
        </mxCell>
        <mxCell id="4Tn1_aSyDvWxXrgQCYve-45" value="대학별" style="rounded=0;whiteSpace=wrap;html=1;" vertex="1" parent="WIyWlLk6GJQsqaUBKTNV-1">
          <mxGeometry x="379" y="286" width="80" height="24" as="geometry" />
        </mxCell>
        <mxCell id="4Tn1_aSyDvWxXrgQCYve-46" value="부서별" style="rounded=0;whiteSpace=wrap;html=1;" vertex="1" parent="WIyWlLk6GJQsqaUBKTNV-1">
          <mxGeometry x="379" y="337" width="80" height="24" as="geometry" />
        </mxCell>
      </root>
    </mxGraphModel>
  </diagram>
</mxfile>
